<svg width="33" height="33" viewBox="0 0 33 33" fill="none" xmlns="http://www.w3.org/2000/svg">
<mask id="mask0_607_537" style="mask-type:alpha" maskUnits="userSpaceOnUse" x="0" y="0" width="33" height="33">
<rect width="33" height="33" fill="#D9D9D9"/>
</mask>
<g mask="url(#mask0_607_537)">
<path d="M5.5 30.25V15.125H2.75V6.875H9.9C9.78542 6.66875 9.71094 6.45104 9.67656 6.22188C9.64219 5.99271 9.625 5.75208 9.625 5.5C9.625 4.35417 10.026 3.38021 10.8281 2.57812C11.6302 1.77604 12.6042 1.375 13.75 1.375C14.2771 1.375 14.7698 1.4724 15.2281 1.66719C15.6865 1.86198 16.1104 2.13125 16.5 2.475C16.8896 2.10833 17.3135 1.83333 17.7719 1.65C18.2302 1.46667 18.7229 1.375 19.25 1.375C20.3958 1.375 21.3698 1.77604 22.1719 2.57812C22.974 3.38021 23.375 4.35417 23.375 5.5C23.375 5.75208 23.3521 5.98698 23.3062 6.20469C23.2604 6.4224 23.1917 6.64583 23.1 6.875H30.25V15.125H27.5V30.25H5.5ZM19.25 4.125C18.8604 4.125 18.5339 4.25677 18.2703 4.52031C18.0068 4.78385 17.875 5.11042 17.875 5.5C17.875 5.88958 18.0068 6.21615 18.2703 6.47969C18.5339 6.74323 18.8604 6.875 19.25 6.875C19.6396 6.875 19.9661 6.74323 20.2297 6.47969C20.4932 6.21615 20.625 5.88958 20.625 5.5C20.625 5.11042 20.4932 4.78385 20.2297 4.52031C19.9661 4.25677 19.6396 4.125 19.25 4.125ZM12.375 5.5C12.375 5.88958 12.5068 6.21615 12.7703 6.47969C13.0339 6.74323 13.3604 6.875 13.75 6.875C14.1396 6.875 14.4661 6.74323 14.7297 6.47969C14.9932 6.21615 15.125 5.88958 15.125 5.5C15.125 5.11042 14.9932 4.78385 14.7297 4.52031C14.4661 4.25677 14.1396 4.125 13.75 4.125C13.3604 4.125 13.0339 4.25677 12.7703 4.52031C12.5068 4.78385 12.375 5.11042 12.375 5.5ZM5.5 9.625V12.375H15.125V9.625H5.5ZM15.125 27.5V15.125H8.25V27.5H15.125ZM17.875 27.5H24.75V15.125H17.875V27.5ZM27.5 12.375V9.625H17.875V12.375H27.5Z" fill="white"/>
</g>
</svg>
