<svg width="33" height="33" viewBox="0 0 33 33" fill="none" xmlns="http://www.w3.org/2000/svg">
<mask id="mask0_607_543" style="mask-type:alpha" maskUnits="userSpaceOnUse" x="0" y="0" width="33" height="33">
<rect width="33" height="33" fill="#D9D9D9"/>
</mask>
<g mask="url(#mask0_607_543)">
<path d="M9.625 30.25C8.86875 30.25 8.22135 29.9807 7.68281 29.4422C7.14427 28.9036 6.875 28.2563 6.875 27.5C6.875 26.7437 7.14427 26.0964 7.68281 25.5578C8.22135 25.0193 8.86875 24.75 9.625 24.75C10.3813 24.75 11.0286 25.0193 11.5672 25.5578C12.1057 26.0964 12.375 26.7437 12.375 27.5C12.375 28.2563 12.1057 28.9036 11.5672 29.4422C11.0286 29.9807 10.3813 30.25 9.625 30.25ZM23.375 30.25C22.6187 30.25 21.9714 29.9807 21.4328 29.4422C20.8943 28.9036 20.625 28.2563 20.625 27.5C20.625 26.7437 20.8943 26.0964 21.4328 25.5578C21.9714 25.0193 22.6187 24.75 23.375 24.75C24.1313 24.75 24.7786 25.0193 25.3172 25.5578C25.8557 26.0964 26.125 26.7437 26.125 27.5C26.125 28.2563 25.8557 28.9036 25.3172 29.4422C24.7786 29.9807 24.1313 30.25 23.375 30.25ZM8.45625 8.25L11.7563 15.125H21.3813L25.1625 8.25H8.45625ZM7.15 5.5H27.4313C27.9583 5.5 28.3594 5.7349 28.6344 6.20469C28.9094 6.67448 28.9208 7.15 28.6688 7.63125L23.7875 16.4312C23.5354 16.8896 23.1974 17.2448 22.7734 17.4969C22.3495 17.749 21.8854 17.875 21.3813 17.875H11.1375L9.625 20.625H26.125V23.375H9.625C8.59375 23.375 7.81458 22.9224 7.2875 22.0172C6.76042 21.112 6.7375 20.2125 7.21875 19.3188L9.075 15.95L4.125 5.5H1.375V2.75H5.84375L7.15 5.5Z" fill="#1C1B1F"/>
</g>
</svg>
